<svg xmlns="http://www.w3.org/2000/svg" viewBox="0 0 1200 800" fill="none">
  <rect width="1200" height="800" fill="#07111f"/>
  <rect x="120" y="90" width="960" height="620" rx="34" fill="#0f172a" stroke="#334155" stroke-width="4"/>
  <rect x="170" y="140" width="350" height="520" rx="44" fill="#020617" stroke="#475569" stroke-width="4"/>
  <rect x="285" y="165" width="120" height="18" rx="9" fill="#1e293b"/>
  <rect x="205" y="215" width="280" height="150" rx="28" fill="#eab308"/>
  <rect x="235" y="255" width="90" height="18" rx="9" fill="#111827"/>
  <rect x="235" y="290" width="150" height="34" rx="17" fill="#111827"/>
  <rect x="205" y="400" width="280" height="76" rx="24" fill="#111827"/>
  <rect x="235" y="430" width="100" height="16" rx="8" fill="#f8fafc"/>
  <rect x="375" y="424" width="70" height="28" rx="14" fill="#22c55e"/>
  <rect x="205" y="498" width="280" height="76" rx="24" fill="#111827"/>
  <rect x="235" y="528" width="100" height="16" rx="8" fill="#f8fafc"/>
  <rect x="375" y="522" width="70" height="28" rx="14" fill="#38bdf8"/>
  <rect x="610" y="180" width="360" height="220" rx="30" fill="#111827"/>
  <rect x="650" y="220" width="210" height="20" rx="10" fill="#475569"/>
  <rect x="650" y="265" width="240" height="48" rx="24" fill="#f8fafc"/>
  <rect x="650" y="340" width="140" height="18" rx="9" fill="#94a3b8"/>
  <rect x="610" y="450" width="360" height="170" rx="30" fill="#111827"/>
  <rect x="650" y="495" width="120" height="18" rx="9" fill="#f8fafc"/>
  <rect x="650" y="530" width="220" height="16" rx="8" fill="#475569"/>
  <rect x="650" y="565" width="180" height="16" rx="8" fill="#334155"/>
  <text x="110" y="760" fill="#f8fafc" font-family="Arial, sans-serif" font-size="42" font-weight="700">Mobile Banking App</text>
</svg>
